<svg width="26" height="30" viewBox="0 0 26 30" fill="none" xmlns="http://www.w3.org/2000/svg">
<path d="M10.9568 1L15.1883 3.46472L15.2381 7.82626C15.1919 8.35615 15.0166 8.86574 14.7283 9.30846C14.44 9.75118 14.0478 10.1129 13.5876 10.3606L6.91904 14.3818C6.4695 14.6368 6.09588 15.0117 5.83788 15.4665C5.57989 15.9213 5.44717 16.4392 5.45381 16.965L5.40469 20.264L1.03427 17.7885L1.01111 14.7875C0.961886 14.2043 1.07688 13.6189 1.34249 13.1005C1.60811 12.582 2.01325 12.1522 2.51002 11.8618L9.95265 7.21026C10.2872 6.93536 10.5513 6.58117 10.722 6.17836C10.8927 5.77554 10.9649 5.33624 10.9323 4.89846L10.9568 1ZM18.191 11.752C18.0121 11.6886 17.8215 11.6671 17.6333 11.6888C17.4451 11.7105 17.264 11.7751 17.1034 11.8776L10.046 16.0985C9.54896 16.3888 9.1436 16.8187 8.87785 17.3373C8.6121 17.8558 8.49707 18.4415 8.54637 19.0248L8.56953 22.0244L12.9413 24.4992L12.9905 21.2002C12.9839 20.6747 13.1165 20.1571 13.3744 19.7025C13.6323 19.2479 14.0057 18.8733 14.455 18.6185L21.3903 14.5556C21.9341 14.2052 22.0078 13.9001 21.6218 13.6826L18.191 11.752ZM20.9769 19.4262C20.8321 19.3433 20.6681 19.3018 20.5022 19.306C20.3363 19.3101 20.1745 19.3598 20.0338 19.4498L18.0598 20.5986C17.5627 20.8889 17.1573 21.3189 16.8915 21.8377C16.6257 22.3564 16.5108 22.9422 16.5602 23.5256L16.5834 26.5252L20.9552 29L21.0043 25.701C20.9977 25.1755 21.1304 24.6579 21.3882 24.2033C21.6461 23.7487 22.0195 23.3741 22.4688 23.1193L25 21.6906L20.9769 19.4262Z" stroke="white" stroke-linecap="round" stroke-linejoin="round"/>
</svg>
