<svg width="29" height="30" viewBox="0 0 29 30" fill="none" xmlns="http://www.w3.org/2000/svg">
<path d="M21.6341 0C20.1623 0 18.9822 1.21635 18.9822 2.73336C18.9822 4.25243 20.1623 5.46809 21.6341 5.46809C23.106 5.46809 24.2861 4.25243 24.2861 2.73336C24.2861 1.21635 23.106 0 21.6341 0ZM17.875 3.55132C14.3478 4.84625 10.6682 5.93959 6.67038 6.64343C6.78972 6.95777 6.85602 7.29944 6.85602 7.65478C6.85602 7.98278 6.80298 8.29712 6.6969 8.58412C13.0749 9.46563 18.8164 11.0441 23.7889 13.4973C23.8949 13.0942 24.0872 12.7252 24.3392 12.4108C19.6186 10.067 14.2351 8.50212 8.32786 7.57961C11.855 6.85527 15.1434 5.84393 18.2993 4.69591C18.1004 4.34058 17.9545 3.95859 17.875 3.55132ZM24.359 5.52276C24.074 5.81659 23.7491 6.06943 23.3911 6.26076C24.4055 7.95545 25.1149 9.71846 25.4994 11.5771C25.7845 11.4746 26.0961 11.4131 26.4143 11.4131C26.5071 11.4131 26.6 11.42 26.6861 11.4268C26.2685 9.35629 25.4795 7.38827 24.359 5.52276ZM4.13774 6.08309C3.28845 6.08309 2.61286 6.7801 2.61286 7.65478C2.61286 8.52945 3.28845 9.22646 4.13774 9.22646C4.98637 9.22646 5.66263 8.52945 5.66263 7.65478C5.66263 6.7801 4.98637 6.08309 4.13774 6.08309ZM6.43833 9.13079C6.22617 9.48613 5.94108 9.7868 5.60296 10.0123C7.73117 12.24 9.98534 14.5155 13.5987 15.5064C13.5987 15.4449 13.592 15.3765 13.592 15.315C13.592 14.9529 13.6782 14.6112 13.8241 14.3037C10.5423 13.3812 8.52013 11.3106 6.43833 9.13079ZM2.65927 9.99863C1.21659 14.6317 0.861229 19.3741 0.518461 24.0754C0.659679 24.0413 0.8062 24.0276 0.956037 24.0276C1.22057 24.0276 1.47383 24.0754 1.70853 24.1711C2.05263 19.4971 2.40932 14.8777 3.78304 10.4291C3.37331 10.3745 2.99143 10.2241 2.65927 9.99863ZM26.4143 12.6432C25.5657 12.6432 24.8894 13.3402 24.8894 14.2148C24.8894 15.0895 25.5657 15.7865 26.4143 15.7865C27.263 15.7865 27.9392 15.0895 27.9392 14.2148C27.9392 13.3402 27.263 12.6432 26.4143 12.6432ZM23.6961 14.1602C21.8131 14.5565 19.9435 14.8982 17.9943 14.8777C18.0208 15.0212 18.0341 15.1647 18.0341 15.315C18.0341 15.5884 17.9877 15.8549 17.8949 16.1009C20.0164 16.1419 22.0054 15.7797 23.9414 15.3629C23.7822 15.0144 23.6961 14.6248 23.6961 14.2148V14.1602ZM15.8131 14.2558C15.2363 14.2558 14.7854 14.7205 14.7854 15.315C14.7854 15.9095 15.2363 16.3742 15.8131 16.3742C16.3899 16.3742 16.8407 15.9095 16.8407 15.315C16.8407 14.7205 16.3899 14.2558 15.8131 14.2558ZM23.9811 15.4585C20.2949 18.5951 16.9136 21.9093 14.4937 25.7565C14.8849 25.8795 15.2363 26.0981 15.528 26.3783C17.8418 22.7224 21.1104 19.4902 24.7303 16.4084C24.4187 16.1555 24.1601 15.8275 23.9811 15.4585ZM13.9036 16.4835C10.7279 19.6542 6.63723 22.1689 2.44379 24.6494C2.73286 24.9365 2.94502 25.3055 3.0438 25.7155C7.26044 23.2281 11.4506 20.6656 14.7655 17.3309C14.4075 17.1327 14.1092 16.8389 13.9036 16.4835ZM25.7977 16.9414C25.8839 18.9094 26.1955 20.8569 26.7458 22.7634C27.0641 22.5311 27.4552 22.3808 27.8729 22.3534C27.369 20.5767 27.0839 18.7796 26.9978 16.9482C26.8055 16.996 26.6132 17.0165 26.4143 17.0165C26.2022 17.0165 25.9966 16.9892 25.7977 16.9414ZM28.0055 23.5766C27.4486 23.5766 27.011 24.0276 27.011 24.6016C27.011 25.1756 27.4486 25.6266 28.0055 25.6266C28.5624 25.6266 29 25.1756 29 24.6016C29 24.0276 28.5624 23.5766 28.0055 23.5766ZM0.956037 25.2576C0.421001 25.2576 0 25.695 0 26.2416C0 26.7951 0.421001 27.2325 0.956037 27.2325C1.49107 27.2325 1.91207 26.7951 1.91207 26.2416C1.91207 25.695 1.49107 25.2576 0.956037 25.2576ZM25.9171 25.2781C22.9535 26.9523 19.6982 27.5058 16.3103 27.7108C16.37 27.9431 16.4031 28.1823 16.4031 28.4283C16.4031 28.606 16.3832 28.7768 16.3567 28.9408C19.8772 28.729 23.3712 28.1481 26.5867 26.31C26.2751 26.0366 26.043 25.6813 25.9171 25.2781ZM3.09088 25.9888C3.10016 26.0708 3.10546 26.1528 3.10546 26.2416C3.10546 26.5833 3.02922 26.9045 2.89397 27.1983L10.9732 28.5855C10.9666 28.5308 10.9666 28.483 10.9666 28.4283C10.9666 28.0593 11.0395 27.704 11.1655 27.376L3.09088 25.9888ZM13.6848 26.8566C12.8362 26.8566 12.16 27.5536 12.16 28.4283C12.16 29.303 12.8362 30 13.6848 30C14.5335 30 15.2097 29.303 15.2097 28.4283C15.2097 27.5536 14.5335 26.8566 13.6848 26.8566Z" fill="white"/>
</svg>
