<svg width="41" height="24" viewBox="0 0 41 24" fill="none" xmlns="http://www.w3.org/2000/svg">
<path d="M8.27148 9.16488C8.56979 7.02824 9.58832 5.05737 11.1587 3.57811C12.729 2.09885 14.7572 1.19979 16.9078 1.02955C19.0585 0.859322 21.2028 1.42812 22.9863 2.6419C24.7698 3.85568 26.0858 5.64177 26.7165 7.70488M26.7175 7.70388C27.6198 7.15216 28.6432 6.82908 29.6988 6.76268C30.7543 6.69628 31.8101 6.88858 32.7745 7.32288C33.8131 7.80278 34.7035 8.55322 35.3524 9.49555C36.0012 10.4379 36.3847 11.5374 36.4625 12.6789" stroke="white" stroke-linecap="round" stroke-linejoin="round"/>
<path d="M36.4625 12.6787C37.5966 13.1024 38.5573 13.8915 39.1933 14.9217C39.8293 15.9518 40.1043 17.1643 39.9751 18.368C39.8458 19.5717 39.3196 20.6981 38.4793 21.5697C37.6391 22.4413 36.5327 23.0084 35.3345 23.1817H7.40052M8.27152 9.16467C6.44231 9.10017 4.66017 9.75225 3.30454 10.9821C1.94892 12.2119 1.1269 13.9223 1.0135 15.7491C0.900108 17.576 1.5043 19.3749 2.69742 20.763C3.89055 22.151 5.57837 23.0185 7.40152 23.1807M26.6835 16.3847L34.1375 8.18066M17.3505 10.8977L23.8505 16.5977M2.61652 20.6607L14.3325 10.8307" stroke="white" stroke-linecap="round" stroke-linejoin="round"/>
<path d="M15.8706 11.5547C16.9752 11.5547 17.8706 10.6593 17.8706 9.55469C17.8706 8.45012 16.9752 7.55469 15.8706 7.55469C14.766 7.55469 13.8706 8.45012 13.8706 9.55469C13.8706 10.6593 14.766 11.5547 15.8706 11.5547Z" stroke="white" stroke-miterlimit="10"/>
<path d="M25.3726 19.8911C26.4771 19.8911 27.3726 18.9957 27.3726 17.8911C27.3726 16.7865 26.4771 15.8911 25.3726 15.8911C24.268 15.8911 23.3726 16.7865 23.3726 17.8911C23.3726 18.9957 24.268 19.8911 25.3726 19.8911Z" stroke="white" stroke-miterlimit="10"/>
</svg>
